<svg width="17" height="18" viewBox="0 0 17 18" fill="none" xmlns="http://www.w3.org/2000/svg">
<g clip-path="url(#clip0_3695_5433)">
<path d="M8.49986 12.4445C8.86662 12.4445 9.16392 12.1472 9.16392 11.7804V10.5982H10.3461C10.7129 10.5982 11.0102 10.3009 11.0102 9.93415C11.0102 9.56739 10.7129 9.27009 10.3461 9.27009H9.16392V8.08789C9.16392 7.72113 8.86662 7.42383 8.49986 7.42383C8.1331 7.42383 7.8358 7.72113 7.8358 8.08789V9.27009H6.65356C6.2868 9.27009 5.9895 9.56739 5.9895 9.93415C5.9895 10.3009 6.2868 10.5982 6.65356 10.5982H7.8358V11.7804C7.8358 12.1472 8.1331 12.4445 8.49986 12.4445Z" fill="#494949"/>
<path d="M16.3358 11.3257C16.7026 11.3257 16.9999 11.0284 16.9999 10.6616V5.73181C16.9999 4.26715 15.8083 3.07556 14.3436 3.07556H8.11319L6.82299 1.97926C6.34333 1.57165 5.7325 1.34717 5.10297 1.34717H2.65613C1.19147 1.34717 -0.00012207 2.53876 -0.00012207 4.00342V13.9967C-0.00012207 15.4614 1.19147 16.653 2.65613 16.653H14.3436C15.8083 16.653 16.9999 15.4614 16.9999 13.9967V13.982C16.9999 13.6152 16.7026 13.3179 16.3358 13.3179C15.9691 13.3179 15.6718 13.6152 15.6718 13.982V13.9967C15.6718 14.7291 15.076 15.3249 14.3436 15.3249H2.65613C1.9238 15.3249 1.328 14.7291 1.328 13.9967V4.00342C1.328 3.27109 1.9238 2.67529 2.65613 2.67529H5.10297C5.4177 2.67529 5.72313 2.78752 5.96296 2.99135L7.43914 4.2457C7.5592 4.3477 7.7116 4.40371 7.86915 4.40371H14.3436C15.076 4.40371 15.6718 4.99951 15.6718 5.73184V10.6617C15.6718 11.0284 15.9691 11.3257 16.3358 11.3257Z" fill="#494949"/>
</g>
<defs>
<clipPath id="clip0_3695_5433">
<rect width="17" height="17" fill="white" transform="translate(-0.00012207 0.5)"/>
</clipPath>
</defs>
</svg>
