<svg width="16" height="16" viewBox="0 0 16 16" fill="none" xmlns="http://www.w3.org/2000/svg">
<g clip-path="url(#clip0_3695_5441)">
<path d="M6.58166 8.88491C6.88469 9.29703 7.28469 9.63642 7.73318 9.87884C8.18166 10.1213 8.67863 10.2667 9.19985 10.3031C9.70894 10.3395 10.2301 10.2667 10.7029 10.0849C11.1877 9.90309 11.6241 9.6243 11.9877 9.26066L14.1332 7.11521C14.7877 6.43642 15.1514 5.53945 15.1392 4.594C15.1392 3.66066 14.7514 2.75157 14.0847 2.09703C13.418 1.43036 12.5211 1.0546 11.5877 1.04248C10.6544 1.04248 9.7453 1.394 9.06651 2.04854L7.83015 3.27278M9.44227 7.44248C9.13924 7.03036 8.73924 6.69096 8.29075 6.44854C7.84227 6.20612 7.3453 6.06066 6.82409 6.0243C6.315 5.98793 5.79378 6.06066 5.32106 6.24248C4.83621 6.4243 4.39984 6.70309 4.03621 7.06672L1.89075 9.21218C1.23621 9.89097 0.872572 10.7879 0.884693 11.7334C0.884693 12.6667 1.27257 13.5758 1.93924 14.2304C2.60591 14.897 3.50287 15.2728 4.43621 15.2849C5.36954 15.2849 6.27863 14.9334 6.95742 14.2788L8.18166 13.0546" stroke="#494949" stroke-width="1.5" stroke-linecap="round" stroke-linejoin="round"/>
<path d="M4.44836 4.18196V1.05469" stroke="#494949" stroke-linecap="round" stroke-linejoin="round"/>
<path d="M4.44832 4.38815L3.32104 3.41846" stroke="#494949" stroke-linecap="round" stroke-linejoin="round"/>
<path d="M4.46045 4.37586L5.5756 3.39404" stroke="#494949" stroke-linecap="round" stroke-linejoin="round"/>
</g>
<defs>
<clipPath id="clip0_3695_5441">
<rect width="16" height="16" fill="white"/>
</clipPath>
</defs>
</svg>
