<svg width="262" height="62" viewBox="0 0 262 62" fill="none" xmlns="http://www.w3.org/2000/svg">
<g clip-path="url(#clip0_2799_49588)">
<path d="M30.1474 29.222L5.60059 14.9571L5.65735 34.8366L30.2028 49.1018L30.1474 29.222ZM30.2143 53.0865L5.66872 38.8221L5.69135 46.7595L30.2369 61.0245L30.2143 53.0865Z" fill="#E94646"/>
<path d="M30.1474 29.2193L5.60059 14.9544L29.8086 0.978149L54.3542 15.2425L30.1474 29.2193Z" fill="#FFAB49"/>
<path d="M54.4528 15.2385L54.4755 23.1933L40.6451 31.1793L40.6568 35.1652L54.4866 27.1796L54.5434 47.0416L30.3356 61.0178L30.3129 53.0798L44.145 45.0952L44.1339 41.1089L30.3014 49.0949L30.2461 29.2153L54.4528 15.2385Z" fill="#FFC895"/>
</g>
<path d="M75.7387 39.1716H83.0514C83.4033 42.1621 86.5194 44.1222 90.5402 44.1222C94.5861 44.1222 97.3503 42.1872 97.3503 39.5234C97.3503 37.1612 95.6164 35.8545 91.2438 34.8744L86.5194 33.8441C79.8348 32.4117 76.5428 29.0191 76.5428 23.7167C76.5428 17.0322 82.3227 12.6093 90.4145 12.6093C98.8581 12.6093 104.161 16.9568 104.286 23.5157H97.1744C96.9231 20.4499 94.2342 18.5902 90.4396 18.5902C86.6953 18.5902 84.1823 20.3745 84.1823 23.0634C84.1823 25.2999 85.9414 26.5564 90.1129 27.5114L94.5107 28.4412C101.773 29.9992 104.94 33.1153 104.94 38.6439C104.94 45.6803 99.2351 50.1282 90.2386 50.1282C81.5185 50.1282 75.9648 45.9818 75.7387 39.1716ZM110.946 16.3537H118.284V22.5608H123.259V28.0893H118.284V40.981C118.284 43.0416 119.289 44.0217 121.45 44.0217C122.103 44.0217 122.782 43.9714 123.234 43.896V49.299C122.48 49.4749 121.224 49.6005 119.741 49.6005C113.408 49.6005 110.946 47.4896 110.946 42.2375V28.0893H107.151V22.5608H110.946V16.3537ZM139.242 50.078C131.1 50.078 125.898 44.851 125.898 36.0053C125.898 27.2852 131.175 21.9828 139.242 21.9828C147.309 21.9828 152.586 27.2601 152.586 36.0053C152.586 44.8761 147.384 50.078 139.242 50.078ZM139.242 44.474C142.835 44.474 145.122 41.4333 145.122 36.0304C145.122 30.6777 142.81 27.5867 139.242 27.5867C135.673 27.5867 133.336 30.6777 133.336 36.0304C133.336 41.4333 135.623 44.474 139.242 44.474ZM156.556 49.5V13.2376H163.894V49.5H156.556ZM168.971 49.5V22.5608H176.308V49.5H168.971ZM172.639 19.5954C170.428 19.5954 168.719 17.9117 168.719 15.8008C168.719 13.6648 170.428 12.0062 172.639 12.0062C174.851 12.0062 176.56 13.6648 176.56 15.8008C176.56 17.9117 174.851 19.5954 172.639 19.5954ZM183.169 16.3537H190.507V22.5608H195.483V28.0893H190.507V40.981C190.507 43.0416 191.512 44.0217 193.673 44.0217C194.327 44.0217 195.005 43.9714 195.457 43.896V49.299C194.704 49.4749 193.447 49.6005 191.964 49.6005C185.632 49.6005 183.169 47.4896 183.169 42.2375V28.0893H179.374V22.5608H183.169V16.3537ZM202.946 59.4766C202.695 59.4766 200.408 59.4514 200.182 59.4012V53.7469C200.408 53.7972 201.74 53.7972 202.016 53.7972C204.705 53.7972 206.037 52.9428 206.54 50.8068C206.54 50.7062 206.816 49.6256 206.766 49.5251L197.392 22.5608H205.459L211.189 43.6196H211.314L217.044 22.5608H224.784L215.511 50.1031C213.199 57.0138 209.832 59.4766 202.946 59.4766Z" fill="#E94646"/>
<defs>
<clipPath id="clip0_2799_49588">
<rect width="60.0437" height="60.0437" fill="white" transform="translate(0 0.978149)"/>
</clipPath>
</defs>
</svg>
