<svg width="40" height="40" viewBox="0 0 40 40" fill="none" xmlns="http://www.w3.org/2000/svg">
<g clip-path="url(#clip0_390_5387)">
<path d="M20.0831 18.8155L3.73047 9.3125L3.76828 22.5559L20.12 32.0591L20.0831 18.8155ZM20.1277 34.7136L3.77586 25.2109L3.79094 30.4987L20.1427 40.0018L20.1277 34.7136Z" fill="#E94646"/>
<path d="M20.0841 18.8137L3.73145 9.3107L19.8584 0L36.2102 9.50266L20.0841 18.8137Z" fill="#FFAB49"/>
<path d="M36.2755 9.5L36.2906 14.7993L27.0771 20.1195L27.0848 22.7748L36.298 17.4549L36.3358 30.6866L20.209 39.9973L20.1939 34.7091L29.4086 29.39L29.4012 26.7344L20.1863 32.0545L20.1494 18.8111L36.2755 9.5Z" fill="#FFC895"/>
</g>
<defs>
<clipPath id="clip0_390_5387">
<rect width="40" height="40" fill="white"/>
</clipPath>
</defs>
</svg>
