<svg width="992" height="507" viewBox="0 0 992 507" fill="none" xmlns="http://www.w3.org/2000/svg">
<g clip-path="url(#clip0_4917_18231)">
<mask id="mask0_4917_18231" style="mask-type:alpha" maskUnits="userSpaceOnUse" x="0" y="-242" width="992" height="992">
<path d="M992 -242H0V750H992V-242Z" fill="url(#paint0_linear_4917_18231)"/>
</mask>
<g mask="url(#mask0_4917_18231)">
<path opacity="0.9" d="M496 365.5C557.58 365.5 607.5 315.58 607.5 254C607.5 192.42 557.58 142.5 496 142.5C434.42 142.5 384.5 192.42 384.5 254C384.5 315.58 434.42 365.5 496 365.5Z" stroke="#E4E7EC"/>
<path opacity="0.8" d="M496 413.5C584.089 413.5 655.5 342.089 655.5 254C655.5 165.911 584.089 94.5 496 94.5C407.911 94.5 336.5 165.911 336.5 254C336.5 342.089 407.911 413.5 496 413.5Z" stroke="#E4E7EC"/>
<path opacity="0.7" d="M496 461.5C610.599 461.5 703.5 368.599 703.5 254C703.5 139.401 610.599 46.5 496 46.5C381.401 46.5 288.5 139.401 288.5 254C288.5 368.599 381.401 461.5 496 461.5Z" stroke="#E4E7EC"/>
<path opacity="0.6" d="M496 509.5C637.109 509.5 751.5 395.109 751.5 254C751.5 112.891 637.109 -1.5 496 -1.5C354.891 -1.5 240.5 112.891 240.5 254C240.5 395.109 354.891 509.5 496 509.5Z" stroke="#E4E7EC"/>
<path opacity="0.5" d="M496 557.5C663.618 557.5 799.5 421.618 799.5 254C799.5 86.3816 663.618 -49.5 496 -49.5C328.382 -49.5 192.5 86.3816 192.5 254C192.5 421.618 328.382 557.5 496 557.5Z" stroke="#E4E7EC"/>
<path opacity="0.4" d="M496 605.5C690.128 605.5 847.5 448.128 847.5 254C847.5 59.8719 690.128 -97.5 496 -97.5C301.872 -97.5 144.5 59.8719 144.5 254C144.5 448.128 301.872 605.5 496 605.5Z" stroke="#E4E7EC"/>
<path opacity="0.3" d="M496 653.5C716.638 653.5 895.5 474.638 895.5 254C895.5 33.3622 716.638 -145.5 496 -145.5C275.362 -145.5 96.5 33.3622 96.5 254C96.5 474.638 275.362 653.5 496 653.5Z" stroke="#E4E7EC"/>
<path opacity="0.2" d="M496 701.5C743.147 701.5 943.5 501.147 943.5 254C943.5 6.85257 743.147 -193.5 496 -193.5C248.853 -193.5 48.5 6.85257 48.5 254C48.5 501.147 248.853 701.5 496 701.5Z" stroke="#E4E7EC"/>
<path opacity="0.1" d="M496 749.5C769.657 749.5 991.5 527.657 991.5 254C991.5 -19.6571 769.657 -241.5 496 -241.5C222.343 -241.5 0.5 -19.6571 0.5 254C0.5 527.657 222.343 749.5 496 749.5Z" stroke="#E4E7EC"/>
<path d="M496 317.5C531.07 317.5 559.5 289.07 559.5 254C559.5 218.93 531.07 190.5 496 190.5C460.93 190.5 432.5 218.93 432.5 254C432.5 289.07 460.93 317.5 496 317.5Z" stroke="#E4E7EC"/>
<mask id="mask1_4917_18231" style="mask-type:luminance" maskUnits="userSpaceOnUse" x="587" y="262" width="31" height="41">
<path d="M617.375 262H587V302.5H617.375V262Z" fill="white"/>
</mask>
<g mask="url(#mask1_4917_18231)">
<path d="M587 266.05C587 263.813 588.813 262 591.05 262H604L617 275.163V298.45C617 300.687 615.187 302.5 612.95 302.5H591.05C588.813 302.5 587 300.687 587 298.45V266.05Z" fill="#E5252A"/>
<path d="M607.25 275.163H617.375L604.213 262V272.125C604.213 273.803 605.573 275.163 607.25 275.163Z" fill="white" fill-opacity="0.5"/>
</g>
<path d="M593 293.398V286H596.061C596.819 286 597.42 286.213 597.872 286.648C598.325 287.073 598.551 287.65 598.551 288.368C598.551 289.087 598.325 289.663 597.872 290.088C597.42 290.524 596.819 290.736 596.061 290.736H594.841V293.398H593ZM594.841 289.127H595.854C596.13 289.127 596.347 289.066 596.494 288.925C596.642 288.793 596.721 288.611 596.721 288.368C596.721 288.125 596.642 287.943 596.494 287.811C596.347 287.67 596.13 287.609 595.854 287.609H594.841V289.127ZM599.309 293.398V286H601.859C602.361 286 602.833 286.071 603.276 286.223C603.719 286.374 604.123 286.587 604.477 286.88C604.831 287.164 605.117 287.548 605.323 288.034C605.52 288.52 605.629 289.076 605.629 289.704C605.629 290.321 605.52 290.878 605.323 291.363C605.117 291.849 604.831 292.234 604.477 292.517C604.122 292.811 603.719 293.023 603.276 293.175C602.833 293.327 602.361 293.398 601.859 293.398H599.309ZM601.111 291.789H601.642C601.928 291.789 602.193 291.758 602.439 291.687C602.676 291.616 602.902 291.505 603.119 291.353C603.325 291.202 603.493 290.989 603.611 290.706C603.729 290.422 603.788 290.088 603.788 289.704C603.788 289.309 603.729 288.975 603.611 288.692C603.493 288.409 603.325 288.196 603.119 288.044C602.902 287.892 602.676 287.781 602.439 287.71C602.193 287.639 601.928 287.609 601.642 287.609H601.111V291.789ZM606.554 293.398V286H611.672V287.609H608.394V288.793H611.013V290.392H608.394V293.398H606.554Z" fill="white"/>
<path d="M667.233 127.572C665.708 127.572 664.471 128.808 664.471 130.334V165.31C664.471 166.835 665.708 168.071 667.233 168.071H691.164C692.689 168.071 693.925 166.835 693.925 165.31V138.617L682.88 127.572H667.233Z" fill="#F4B70A"/>
<path d="M693.926 148.052V138.618L692.315 137.007H684.548C683.933 137.007 683.625 137.75 684.059 138.185L693.926 148.052Z" fill="url(#paint1_linear_4917_18231)"/>
<path d="M682.88 127.572L693.926 138.617H685.642C684.117 138.617 682.88 137.381 682.88 135.856V127.572Z" fill="#FADC87"/>
<path fill-rule="evenodd" clip-rule="evenodd" d="M672.756 145.98C672.247 145.98 671.835 146.393 671.835 146.901V159.787C671.835 160.295 672.247 160.707 672.756 160.707H685.641C686.15 160.707 686.562 160.295 686.562 159.787V146.901C686.562 146.393 686.15 145.98 685.641 145.98H672.756ZM684.721 150.122H673.676V156.565H684.721V150.122Z" fill="white"/>
<path d="M390.159 171.572C388.634 171.572 387.397 172.808 387.397 174.334V209.31C387.397 210.835 388.634 212.071 390.159 212.071H414.09C415.615 212.071 416.851 210.835 416.851 209.31V182.617L405.806 171.572H390.159Z" fill="#20A464"/>
<path d="M416.852 192.052V182.618L415.241 181.007H407.474C406.859 181.007 406.551 181.75 406.985 182.185L416.852 192.052Z" fill="url(#paint2_linear_4917_18231)"/>
<path d="M405.807 171.572L416.852 182.617H408.568C407.043 182.617 405.807 181.381 405.807 179.856V171.572Z" fill="#8ED1B1"/>
<path fill-rule="evenodd" clip-rule="evenodd" d="M409.488 191.362V204.708H394.761V191.362H409.488ZM401.204 193.203H396.602V195.504H401.204V193.203ZM403.045 195.504V193.203H407.647V195.504H403.045ZM401.204 196.884H396.602V199.186H401.204V196.884ZM403.045 199.186V196.884H407.647V199.186H403.045ZM401.204 200.566H396.602V202.867H401.204V200.566ZM403.045 202.867V200.566H407.647V202.867H403.045Z" fill="white"/>
<mask id="mask2_4917_18231" style="mask-type:luminance" maskUnits="userSpaceOnUse" x="279" y="271" width="31" height="41">
<path d="M309.375 271H279V311.5H309.375V271Z" fill="white"/>
</mask>
<g mask="url(#mask2_4917_18231)">
<path d="M279 275.05C279 272.813 280.813 271 283.05 271H296L309 284.163V307.45C309 309.687 307.187 311.5 304.95 311.5H283.05C280.813 311.5 279 309.687 279 307.45V275.05Z" fill="#FFAB49"/>
<path d="M299.25 284.163H309.375L296.213 271V281.125C296.213 282.803 297.573 284.163 299.25 284.163Z" fill="white" fill-opacity="0.5"/>
</g>
<path d="M286.841 300.564C286.532 300.848 286.511 301.328 286.795 301.637C287.078 301.946 287.558 301.967 287.867 301.684L286.841 300.564ZM296.732 302.08C297.05 302.353 297.53 302.316 297.803 301.998C298.076 301.679 298.039 301.2 297.72 300.927L296.732 302.08ZM295.171 299.584C294.874 299.881 294.874 300.362 295.171 300.658C295.467 300.955 295.948 300.955 296.244 300.658L295.171 299.584ZM300.567 300.729C300.903 300.98 301.379 300.912 301.631 300.577C301.882 300.241 301.814 299.765 301.479 299.514L300.567 300.729ZM288.493 291.252H299.884V289.733H288.493V291.252ZM299.884 291.252C300.094 291.252 300.264 291.422 300.264 291.632H301.782C301.782 290.583 300.933 289.733 299.884 289.733V291.252ZM300.264 291.632V303.022H301.782V291.632H300.264ZM300.264 303.022C300.264 303.232 300.094 303.402 299.884 303.402V304.921C300.933 304.921 301.782 304.071 301.782 303.022H300.264ZM299.884 303.402H288.493V304.921H299.884V303.402ZM288.493 303.402C288.284 303.402 288.114 303.232 288.114 303.022H286.595C286.595 304.071 287.445 304.921 288.493 304.921V303.402ZM288.114 303.022V291.632H286.595V303.022H288.114ZM288.114 291.632C288.114 291.422 288.284 291.252 288.493 291.252V289.733C287.445 289.733 286.595 290.583 286.595 291.632H288.114ZM287.867 301.684L291.928 297.962L290.901 296.842L286.841 300.564L287.867 301.684ZM291.928 297.962L292.916 296.809C292.333 296.309 291.468 296.323 290.901 296.842L291.928 297.962ZM291.928 297.962L296.732 302.08L297.72 300.927L292.916 296.809L291.928 297.962ZM296.244 300.658L298.057 298.846L296.983 297.772L295.171 299.584L296.244 300.658ZM298.057 298.846L298.968 297.631C298.363 297.177 297.517 297.237 296.983 297.772L298.057 298.846ZM298.057 298.846L300.567 300.729L301.479 299.514L298.968 297.631L298.057 298.846ZM297.986 294.29C297.986 294.709 297.646 295.049 297.226 295.049V296.568C298.484 296.568 299.504 295.548 299.504 294.29H297.986ZM297.226 295.049C296.807 295.049 296.467 294.709 296.467 294.29H294.948C294.948 295.548 295.968 296.568 297.226 296.568V295.049ZM296.467 294.29C296.467 293.87 296.807 293.53 297.226 293.53V292.011C295.968 292.011 294.948 293.031 294.948 294.29H296.467ZM297.226 293.53C297.646 293.53 297.986 293.87 297.986 294.29H299.504C299.504 293.031 298.484 292.011 297.226 292.011V293.53Z" fill="white"/>
<g opacity="0.8">
<mask id="mask3_4917_18231" style="mask-type:luminance" maskUnits="userSpaceOnUse" x="194" y="125" width="31" height="41">
<path d="M224.375 125H194V165.5H224.375V125Z" fill="white"/>
</mask>
<g mask="url(#mask3_4917_18231)">
<path d="M194 129.05C194 126.813 195.813 125 198.05 125H211L224 138.162V161.45C224 163.687 222.187 165.5 219.95 165.5H198.05C195.813 165.5 194 163.687 194 161.45V129.05Z" fill="#344054"/>
<path d="M214.25 138.162H224.375L211.213 125V135.125C211.213 136.803 212.573 138.162 214.25 138.162Z" fill="white" fill-opacity="0.5"/>
</g>
<mask id="mask4_4917_18231" style="mask-type:luminance" maskUnits="userSpaceOnUse" x="200" y="142" width="19" height="19">
<path d="M218.301 142.215H200.076V160.44H218.301V142.215Z" fill="white"/>
</mask>
<g mask="url(#mask4_4917_18231)">
<path d="M206.151 147.151L201.595 151.871L206.151 156.264M212.226 147.151L216.782 151.871L212.226 156.264M210.707 143.734L208.05 158.921" stroke="white" stroke-width="1.51875" stroke-linecap="round" stroke-linejoin="round"/>
</g>
</g>
<path d="M782.085 228.572C780.56 228.572 779.323 229.809 779.323 231.334V266.31C779.323 267.835 780.56 269.071 782.085 269.071H806.016C807.541 269.071 808.777 267.835 808.777 266.31V239.617L797.732 228.572H782.085Z" fill="#4E8DF5"/>
<path d="M808.778 249.052V239.618L807.167 238.007H799.399C798.784 238.007 798.476 238.75 798.911 239.185L808.778 249.052Z" fill="url(#paint3_linear_4917_18231)"/>
<path d="M797.732 228.572L808.778 239.617H800.494C798.969 239.617 797.732 238.381 797.732 236.856V228.572Z" fill="#A6C5FA"/>
<path d="M801.414 248.822H786.687V250.663H801.414V248.822Z" fill="white"/>
<path d="M801.414 252.503H786.687V254.344H801.414V252.503Z" fill="white"/>
<path d="M786.687 256.185H801.414V258.026H786.687V256.185Z" fill="white"/>
<path d="M797.732 259.867H786.687V261.708H797.732V259.867Z" fill="white"/>
</g>
<g filter="url(#filter0_d_4917_18231)">
<rect x="467.5" y="226" width="56" height="56" rx="12" fill="white"/>
<rect x="468" y="226.5" width="55" height="55" rx="11.5" stroke="#D0D5DD"/>
<path d="M508.5 255.249C508.168 255.249 507.85 255.381 507.616 255.615C507.381 255.85 507.25 256.168 507.25 256.499V261.765C507.249 262.689 506.881 263.574 506.228 264.228C505.575 264.881 504.689 265.248 503.766 265.249H488.233C487.31 265.248 486.424 264.881 485.771 264.228C485.118 263.574 484.751 262.689 484.75 261.765V256.499C484.75 256.168 484.618 255.85 484.383 255.615C484.149 255.381 483.831 255.249 483.5 255.249C483.168 255.249 482.85 255.381 482.616 255.615C482.381 255.85 482.25 256.168 482.25 256.499V261.765C482.251 263.352 482.882 264.873 484.004 265.995C485.126 267.116 486.647 267.747 488.233 267.749H503.766C505.352 267.747 506.873 267.116 507.995 265.995C509.117 264.873 509.748 263.352 509.75 261.765V256.499C509.75 256.168 509.618 255.85 509.383 255.615C509.149 255.381 508.831 255.249 508.5 255.249Z" fill="#475467"/>
<path d="M489.384 249.883L494.75 244.516V260.249C494.75 260.58 494.881 260.898 495.116 261.133C495.35 261.367 495.668 261.499 496 261.499C496.331 261.499 496.649 261.367 496.884 261.133C497.118 260.898 497.25 260.58 497.25 260.249V244.516L502.616 249.883C502.852 250.11 503.168 250.236 503.495 250.233C503.823 250.231 504.137 250.099 504.368 249.867C504.6 249.636 504.732 249.322 504.734 248.994C504.737 248.667 504.611 248.351 504.384 248.115L496.884 240.615C496.649 240.381 496.331 240.249 496 240.249C495.668 240.249 495.35 240.381 495.116 240.615L487.616 248.115C487.388 248.351 487.262 248.667 487.265 248.994C487.268 249.322 487.399 249.636 487.631 249.867C487.863 250.099 488.177 250.231 488.504 250.233C488.832 250.236 489.148 250.11 489.384 249.883Z" fill="#475467"/>
</g>
</g>
<defs>
<filter id="filter0_d_4917_18231" x="465.5" y="225" width="60" height="60" filterUnits="userSpaceOnUse" color-interpolation-filters="sRGB">
<feFlood flood-opacity="0" result="BackgroundImageFix"/>
<feColorMatrix in="SourceAlpha" type="matrix" values="0 0 0 0 0 0 0 0 0 0 0 0 0 0 0 0 0 0 127 0" result="hardAlpha"/>
<feOffset dy="1"/>
<feGaussianBlur stdDeviation="1"/>
<feColorMatrix type="matrix" values="0 0 0 0 0.0627451 0 0 0 0 0.0941176 0 0 0 0 0.156863 0 0 0 0.05 0"/>
<feBlend mode="normal" in2="BackgroundImageFix" result="effect1_dropShadow_4917_18231"/>
<feBlend mode="normal" in="SourceGraphic" in2="effect1_dropShadow_4917_18231" result="shape"/>
</filter>
<linearGradient id="paint0_linear_4917_18231" x1="496" y1="-242" x2="496" y2="750" gradientUnits="userSpaceOnUse">
<stop offset="0.437233" stop-color="white"/>
<stop offset="0.662338" stop-color="white" stop-opacity="0"/>
</linearGradient>
<linearGradient id="paint1_linear_4917_18231" x1="688.891" y1="148.052" x2="688.891" y2="136.777" gradientUnits="userSpaceOnUse">
<stop stop-color="#F4B70A"/>
<stop offset="1" stop-color="#E2930A"/>
</linearGradient>
<linearGradient id="paint2_linear_4917_18231" x1="411.817" y1="192.052" x2="411.817" y2="180.777" gradientUnits="userSpaceOnUse">
<stop stop-color="#20A464"/>
<stop offset="1" stop-color="#207E55"/>
</linearGradient>
<linearGradient id="paint3_linear_4917_18231" x1="803.255" y1="249.052" x2="803.255" y2="237.777" gradientUnits="userSpaceOnUse">
<stop stop-color="#4E8DF5"/>
<stop offset="1" stop-color="#3D6ACD"/>
</linearGradient>
<clipPath id="clip0_4917_18231">
<rect width="992" height="507" fill="white"/>
</clipPath>
</defs>
</svg>
